<svg xmlns="http://www.w3.org/2000/svg" xmlns:xlink="http://www.w3.org/1999/xlink"><symbol id="anubis" viewBox="0 0 320 570"><style>.st0{fill:#a13c2a}.st1{fill:#e1d000}.st2{font-family:&apos;Georgia-Bold&apos;}.st3{font-size:24px}.st4{fill:none}.st5{font-family:&apos;Georgia&apos;}.st6{font-size:16px}</style><g id="Layer_2"><path d="M0 0h320v81.3H0z" class="st0"/><g id="logo"><path d="M171.5 70.6h-23.1c-9.9 0-18-8.1-18-18V31.4c0-9.9 8.1-18 18-18h23.1c9.9 0 18 8.1 18 18v21.2c0 9.9-8.1 18-18 18zm-23-54.3c-8.3 0-15.1 6.8-15.1 15.1v21.2c0 8.3 6.8 15.1 15.1 15.1h23.1c8.3 0 15.1-6.8 15.1-15.1V31.4c0-8.3-6.8-15.1-15.1-15.1h-23.1z"/><path d="M181 49.8c-.2-.3-.4-.6-.7-.9-1-.7-1.9-1.5-3-2.1-2.1-1.2-3.6-2.9-4.8-4.9-.5-.7-.9-1.5-1.4-2.3-.5-.8-1.1-1.4-2-1.8-.8-.4-1.7-.8-2.5-1.2-.1-.1-.3-.2-.4-.2-1.9-1.2-2.3-2.1-1.8-4.3.6-2.9 1.5-5.7 2.5-8.5l1.2-3.6c.1-.2.1-.4.1-.6l-.1-.1c-.3.2-.7.4-1 .6-.9.8-1.9 1.7-2.7 2.6l-.2.2c.1-.7.3-1.9.4-2 .2-.5.4-1 .5-1.6.1-.3.1-.7-.1-.8-.3-.2-.6 0-.8.2-.7.7-1.4 1.4-2 2.2-2.1 2.8-3.4 6.1-4.5 9.4-.2.7-.7 2.5-.9 3.4-4.6 2.2-8.8 4.9-12.4 8.5-2.1 2.1-3.8 4.3-5.1 7-.6 1.2-.4 3.7.1 4.9 1 2.5 2.5 4.7 4.5 6.4 3.8 3.3 8.2 5.2 13.2 5.7 1.7.2 7.4-.1 8.6-.4.2 2.3.3 4.6.3 6.1h3.4c-.1-3.4-.8-11.5-3.9-15.3-.2-.3-2.9-4.1-3.6-6-.1-.2-.2-.4-.3-.5V49c.4-.5.8-1.1 1.2-1.6h.1c.8 1.7 2.3 1.9 3.8 1.6 1.7-.3 3.2-.1 4.8.5.9.4 1.8.6 2.6 1 1.1.4 2.2.9 3.3 1.4.3.1.7.2.9 0 .9-.4 1.8-1 2.7-1.5.2-.1.2-.4 0-.6z"/><path d="M160.8 54.5c-5.8-3-11.9-4.8-18.5-4.8h-.3c.1 1.1.7 3.1.9 3.5 1.3 3.2 3.6 5.5 6.6 7.2 3.6 2 7.5 2.9 11.5 3.3.6.1 3.1.3 4.4.1-.2-1.6-.4-3-.7-4-1.1-3.8-1.7-4.2-3.9-5.3zm-1.6 6.9c-2.9-.4-5.7-1.2-8.2-2.5-2.8-1.5-5-3.5-6.2-6.4-.1-.3-.2-.5-.3-.9h.7c2 .4 4.1.7 6.1 1.1 3.6.9 6.9 2.3 9.8 4.6 1.4 1.1 1.8 2.7 2 4.5-1.4-.1-2.6-.2-3.9-.4zm11.4-19.6v-.4c-.4-.8-.9-1.4-1.7-1.8-.3-.2-.6-.3-1-.4-1-.2-1.9-.8-2.6-1.4-.8-.6-1.6-1.3-2.3-1.9-.1-.1-.3-.1-.4-.1.1.1.1.3.2.4 1.1.9 2.1 1.7 3.3 2.5.5.3 1.1.6 1.7.7 1.1.3 2 .9 2.6 2.1 0 .1.1.2.2.3-.1 0 0 0 0 0zm-4.7 31.4h3.4v-1.5h-3.4v1.5zM161.5 50l-.1-.9c-.4-.2-.3-.5-.2-.8.4-.8.7-1.6 1.2-2.3.6-1.1.5-2.1-.1-3.1l-.3-.6c-.3-.5-.6-1-.8-1.6-.6-1.9-1.1-3.9-1.6-5.8-.2-.8-.3-1.7-.3-2.5-.4.2-.8.4-1.3.6.2 1 .3 2 .4 2.9.5 2.5 1.1 4.9 2.5 7 .5.8.8 1.7.2 2.6-.4.7-.6 1.5-.9 2.2-.3.9 0 1.5.9 2 .2.1.3.2.4.3z" class="st1"/><path d="M169 42.3c.3.1.6.3.9.4.2.1.4.3.6.4.1 0 .3 0 .3-.1v-.3l-.3-.3c-.3-.3-.6-.5-.8-.9-.5-.8-1.3-1.2-2.2-1.5-.4-.1-.9-.3-1.2-.5-1-.7-1.9-1.4-2.8-2-.1 0-.1-.1-.1-.1-.2-.1-.4-.3-.5 0-.1.1.1.4.2.5 1.1.8 2.3 1.7 3.4 2.5.2.1.4.4.5.6.3 1 .9 1.4 2 1.3z" class="st1"/><path d="M172.2 13.7h-24.5c-1.9 0-3.4-1.5-3.4-3.4s1.5-3.4 3.4-3.4h24.5c1.9 0 3.4 1.5 3.4 3.4s-1.5 3.4-3.4 3.4z"/></g><path id="feather_right" d="M298.4 46.7s0-.3-.1-.7v-3.5c0-.6 0-1.2.1-1.6 0-.3.1-.8.2-1.6s.2-1.6.4-2.5c.1-.9.3-1.7.4-2.5.1-.8.2-1.4.3-1.7 0-.1.1-.2.2-.6.1-.3.2-.7.4-1.1.1-.4.3-.8.4-1.2.1-.4.3-.7.3-1 .1-.4.3-.9.5-1.4.2-.6.4-1.2.6-1.7.2-.6.5-1.3.8-2h1.3s.2.1.4.4c.3.3.6.5.9.9.3.3.7.7 1 1.1.3.4.6.7.8.9.5.5.8 1.2 1.2 2 .3.8.6 1.7.8 2.6.2.9.4 1.8.5 2.7.1.9.1 1.7.1 2.3v25.1c0 .1-.1.2-.2.4-.2.2-.3.2-.4.2-.1 0-.4 0-.7.1h-2.2c-.4 0-.6 0-.7-.1v-8.4l-7.3-7.1z" class="st1"/><path id="feather_left" d="M14.2 53.8v8.4c-.1 0-.4 0-.7.1s-.7 0-1.1 0h-1.1c-.3 0-.6 0-.7-.1-.1 0-.2-.1-.4-.2-.2-.2-.2-.3-.2-.4V36.4c0-.6 0-1.4.1-2.3.1-.9.2-1.8.5-2.7.2-.9.5-1.8.8-2.6.3-.8.7-1.5 1.2-2 .2-.2.5-.5.8-.9.3-.4.7-.7 1-1.1.3-.3.7-.6.9-.9l.4-.4H17c.3.7.5 1.4.8 2 .2.6.4 1.1.6 1.7.2.6.4 1.1.5 1.4.1.2.2.6.3 1 .1.4.3.8.4 1.2.1.4.3.8.4 1.1.1.3.2.5.2.6.1.3.1.9.3 1.7.1.8.3 1.6.4 2.5.1.9.3 1.7.4 2.5.1.8.2 1.3.2 1.6 0 .4 0 .9.1 1.6v3.5c0 .5 0 .7-.1.7l-7.3 7.2z" class="st1"/><g id="banner"><defs><path id="SVGID_1_" d="M0 81.3h320v50H0z"/></defs><clipPath id="SVGID_00000176763081803727379740000004771897724895284106_"><use overflow="visible" xlink:href="#SVGID_1_"/></clipPath></g><text class="st2 st3" transform="translate(116.6 178)">Anubis</text><path d="M10 211.3h300v95.3H10z" class="st4"/><text transform="matrix(.9869 0 0 1 10 223.429)"><tspan x="0" y="0" class="st5 st6">Anubis is the Greek name of a god </tspan><tspan x="0" y="19.2" class="st5 st6">associated with mummification and the </tspan><tspan x="0" y="38.4" class="st5 st6">afterlife in ancient Egyptian religion, </tspan><tspan x="0" y="57.6" class="st5 st6">usually depicted as a canine or a man with </tspan><tspan x="0" y="76.8" class="st5 st6">a canine head.</tspan></text></g></symbol></svg>